<mxfile host="65bd71144e">
    <diagram id="OnGgg5ZUVy-Hn0RyIRep" name="PÃ¡gina-1">
        <mxGraphModel dx="637" dy="467" grid="0" gridSize="10" guides="1" tooltips="1" connect="1" arrows="1" fold="1" page="0" pageScale="1" pageWidth="827" pageHeight="1169" background="#ffffff" math="0" shadow="1">
            <root>
                <mxCell id="0"/>
                <mxCell id="1" parent="0"/>
                <mxCell id="6" value="" style="edgeStyle=none;html=1;strokeColor=#0000CC;" parent="1" source="2" target="5" edge="1">
                    <mxGeometry relative="1" as="geometry"/>
                </mxCell>
                <mxCell id="2" value="&lt;font color=&quot;#0000cc&quot;&gt;Start&lt;/font&gt;" style="ellipse;whiteSpace=wrap;html=1;aspect=fixed;fillColor=#dae8fc;strokeColor=#6c8ebf;gradientColor=#7ea6e0;" parent="1" vertex="1">
                    <mxGeometry x="330" y="120" width="70" height="70" as="geometry"/>
                </mxCell>
                <mxCell id="8" value="" style="edgeStyle=none;html=1;strokeColor=#0000CC;" parent="1" source="5" target="7" edge="1">
                    <mxGeometry relative="1" as="geometry"/>
                </mxCell>
                <mxCell id="5" value="&lt;font color=&quot;#0000cc&quot;&gt;path&lt;/font&gt;" style="shape=parallelogram;perimeter=parallelogramPerimeter;whiteSpace=wrap;html=1;fixedSize=1;fillColor=#dae8fc;strokeColor=#6c8ebf;gradientColor=#7ea6e0;" parent="1" vertex="1">
                    <mxGeometry x="305" y="275" width="120" height="60" as="geometry"/>
                </mxCell>
                <mxCell id="10" value="" style="edgeStyle=none;html=1;strokeColor=#0000CC;" parent="1" source="7" target="9" edge="1">
                    <mxGeometry relative="1" as="geometry"/>
                </mxCell>
                <mxCell id="12" value="" style="edgeStyle=none;html=1;strokeColor=#0000CC;" parent="1" source="7" target="11" edge="1">
                    <mxGeometry relative="1" as="geometry"/>
                </mxCell>
                <mxCell id="7" value="&lt;font color=&quot;#0000cc&quot;&gt;Existe?&lt;/font&gt;" style="rhombus;whiteSpace=wrap;html=1;fillColor=#dae8fc;gradientColor=#7ea6e0;strokeColor=#6c8ebf;" parent="1" vertex="1">
                    <mxGeometry x="325" y="405" width="80" height="80" as="geometry"/>
                </mxCell>
                <mxCell id="16" value="" style="edgeStyle=none;html=1;strokeColor=#0000CC;" parent="1" source="9" target="15" edge="1">
                    <mxGeometry relative="1" as="geometry"/>
                </mxCell>
                <mxCell id="WNQO2OhhC1pBhigfkr8y-101" value="" style="edgeStyle=none;html=1;fontSize=12;fontColor=#0000CC;strokeColor=#0000CC;" parent="1" source="9" edge="1">
                    <mxGeometry relative="1" as="geometry">
                        <mxPoint x="288" y="723" as="targetPoint"/>
                        <Array as="points">
                            <mxPoint x="288" y="605"/>
                        </Array>
                    </mxGeometry>
                </mxCell>
                <mxCell id="9" value="&lt;font color=&quot;#0000cc&quot;&gt;&lt;span&gt;La ruta es&lt;/span&gt;&lt;br&gt;&lt;span&gt;absoluta?&lt;/span&gt;&lt;/font&gt;" style="rhombus;whiteSpace=wrap;html=1;fillColor=#dae8fc;gradientColor=#7ea6e0;strokeColor=#6c8ebf;" parent="1" vertex="1">
                    <mxGeometry x="325" y="565" width="80" height="80" as="geometry"/>
                </mxCell>
                <mxCell id="67" value="" style="edgeStyle=none;html=1;fontSize=12;strokeColor=#0000CC;" parent="1" source="11" edge="1">
                    <mxGeometry relative="1" as="geometry">
                        <mxPoint x="301" y="1970" as="targetPoint"/>
                        <Array as="points">
                            <mxPoint x="30" y="445"/>
                            <mxPoint x="30" y="1970"/>
                        </Array>
                    </mxGeometry>
                </mxCell>
                <mxCell id="11" value="&lt;font color=&quot;#0000cc&quot;&gt;Mensjae error&lt;/font&gt;" style="whiteSpace=wrap;html=1;fillColor=#dae8fc;gradientColor=#7ea6e0;strokeColor=#6c8ebf;" parent="1" vertex="1">
                    <mxGeometry x="60" y="415" width="120" height="60" as="geometry"/>
                </mxCell>
                <mxCell id="13" value="&lt;font color=&quot;#0000cc&quot;&gt;Si&lt;/font&gt;" style="text;html=1;strokeColor=none;fillColor=none;align=center;verticalAlign=middle;whiteSpace=wrap;rounded=0;" parent="1" vertex="1">
                    <mxGeometry x="370" y="500" width="60" height="30" as="geometry"/>
                </mxCell>
                <mxCell id="14" value="&lt;font color=&quot;#0000cc&quot;&gt;No&lt;/font&gt;" style="text;html=1;strokeColor=none;fillColor=none;align=center;verticalAlign=middle;whiteSpace=wrap;rounded=0;" parent="1" vertex="1">
                    <mxGeometry x="220" y="390" width="60" height="30" as="geometry"/>
                </mxCell>
                <mxCell id="21" value="" style="edgeStyle=none;html=1;strokeColor=#0000CC;" parent="1" source="15" edge="1">
                    <mxGeometry relative="1" as="geometry">
                        <mxPoint x="363" y="648" as="targetPoint"/>
                        <Array as="points">
                            <mxPoint x="538" y="690"/>
                            <mxPoint x="363" y="690"/>
                        </Array>
                    </mxGeometry>
                </mxCell>
                <mxCell id="15" value="&lt;font color=&quot;#0000cc&quot;&gt;Convertir en una ruta absoluta&lt;/font&gt;" style="whiteSpace=wrap;html=1;fillColor=#dae8fc;gradientColor=#7ea6e0;strokeColor=#6c8ebf;" parent="1" vertex="1">
                    <mxGeometry x="465" y="575" width="145" height="60" as="geometry"/>
                </mxCell>
                <mxCell id="17" value="&lt;font color=&quot;#0000cc&quot;&gt;No&lt;/font&gt;" style="text;html=1;strokeColor=none;fillColor=none;align=center;verticalAlign=middle;whiteSpace=wrap;rounded=0;" parent="1" vertex="1">
                    <mxGeometry x="405" y="565" width="60" height="30" as="geometry"/>
                </mxCell>
                <mxCell id="26" value="" style="edgeStyle=none;html=1;entryX=0;entryY=0.5;entryDx=0;entryDy=0;strokeColor=#0000CC;exitX=0;exitY=0.5;exitDx=0;exitDy=0;" parent="1" source="18" target="34" edge="1">
                    <mxGeometry relative="1" as="geometry">
                        <mxPoint x="246" y="773" as="sourcePoint"/>
                        <mxPoint x="90" y="1050" as="targetPoint"/>
                        <Array as="points">
                            <mxPoint x="80" y="768"/>
                            <mxPoint x="80" y="1065"/>
                        </Array>
                    </mxGeometry>
                </mxCell>
                <mxCell id="32" value="" style="edgeStyle=none;html=1;strokeColor=#0000CC;entryX=1;entryY=0.5;entryDx=0;entryDy=0;" parent="1" source="18" target="WNQO2OhhC1pBhigfkr8y-84" edge="1">
                    <mxGeometry relative="1" as="geometry">
                        <mxPoint x="302" y="887" as="targetPoint"/>
                    </mxGeometry>
                </mxCell>
                <mxCell id="18" value="&lt;font color=&quot;#0000cc&quot;&gt;es un directorio?&lt;/font&gt;" style="rhombus;whiteSpace=wrap;html=1;fillColor=#dae8fc;gradientColor=#7ea6e0;strokeColor=#6c8ebf;" parent="1" vertex="1">
                    <mxGeometry x="252" y="728" width="80" height="80" as="geometry"/>
                </mxCell>
                <mxCell id="28" value="&lt;font color=&quot;#0000cc&quot;&gt;No&lt;/font&gt;" style="text;html=1;align=center;verticalAlign=middle;resizable=0;points=[];autosize=1;strokeColor=none;fillColor=none;" parent="1" vertex="1">
                    <mxGeometry x="183" y="731" width="25" height="18" as="geometry"/>
                </mxCell>
                <mxCell id="33" value="&lt;font color=&quot;#0000cc&quot;&gt;Si&lt;/font&gt;" style="text;html=1;strokeColor=none;fillColor=none;align=center;verticalAlign=middle;whiteSpace=wrap;rounded=0;" parent="1" vertex="1">
                    <mxGeometry x="298" y="827" width="60" height="30" as="geometry"/>
                </mxCell>
                <mxCell id="WNQO2OhhC1pBhigfkr8y-94" value="" style="edgeStyle=none;html=1;fontSize=12;fontColor=#0000CC;strokeColor=#0000CC;" parent="1" source="34" edge="1">
                    <mxGeometry relative="1" as="geometry">
                        <mxPoint x="286" y="1161" as="targetPoint"/>
                        <Array as="points">
                            <mxPoint x="286" y="1065"/>
                        </Array>
                    </mxGeometry>
                </mxCell>
                <mxCell id="WNQO2OhhC1pBhigfkr8y-96" value="" style="edgeStyle=none;html=1;fontSize=12;fontColor=#0000CC;strokeColor=#0000CC;" parent="1" source="34" edge="1">
                    <mxGeometry relative="1" as="geometry">
                        <mxPoint x="34" y="1170" as="targetPoint"/>
                        <Array as="points">
                            <mxPoint x="149" y="1170"/>
                        </Array>
                    </mxGeometry>
                </mxCell>
                <mxCell id="34" value="&lt;font color=&quot;#0000cc&quot;&gt;es md?&lt;/font&gt;" style="rhombus;whiteSpace=wrap;html=1;fillColor=#dae8fc;gradientColor=#7ea6e0;strokeColor=#6c8ebf;" parent="1" vertex="1">
                    <mxGeometry x="112" y="1025" width="80" height="80" as="geometry"/>
                </mxCell>
                <mxCell id="42" value="" style="edgeStyle=none;html=1;strokeColor=#0000CC;" parent="1" source="39" target="41" edge="1">
                    <mxGeometry relative="1" as="geometry"/>
                </mxCell>
                <mxCell id="WNQO2OhhC1pBhigfkr8y-91" value="" style="edgeStyle=none;html=1;fontSize=12;fontColor=#0000CC;strokeColor=#0000CC;exitX=0.05;exitY=0.513;exitDx=0;exitDy=0;exitPerimeter=0;" parent="1" source="WNQO2OhhC1pBhigfkr8y-84" edge="1">
                    <mxGeometry relative="1" as="geometry">
                        <mxPoint x="293" y="967" as="sourcePoint"/>
                        <mxPoint x="293" y="1161" as="targetPoint"/>
                        <Array as="points"/>
                    </mxGeometry>
                </mxCell>
                <mxCell id="39" value="&lt;font color=&quot;#0000cc&quot;&gt;leer contenido&lt;/font&gt;" style="whiteSpace=wrap;html=1;fillColor=#dae8fc;gradientColor=#7ea6e0;strokeColor=#6c8ebf;" parent="1" vertex="1">
                    <mxGeometry x="273" y="1163" width="120" height="60" as="geometry"/>
                </mxCell>
                <mxCell id="44" value="" style="edgeStyle=none;html=1;strokeColor=#0000CC;" parent="1" source="41" target="43" edge="1">
                    <mxGeometry relative="1" as="geometry"/>
                </mxCell>
                <mxCell id="73" value="" style="edgeStyle=none;html=1;fontSize=12;fontColor=#0000CC;strokeColor=#0000CC;" parent="1" source="41" target="72" edge="1">
                    <mxGeometry relative="1" as="geometry"/>
                </mxCell>
                <mxCell id="41" value="&lt;font color=&quot;#0000cc&quot;&gt;tiene&lt;br&gt;links?&lt;/font&gt;" style="rhombus;whiteSpace=wrap;html=1;fillColor=#dae8fc;gradientColor=#7ea6e0;strokeColor=#6c8ebf;" parent="1" vertex="1">
                    <mxGeometry x="293" y="1280" width="85" height="80" as="geometry"/>
                </mxCell>
                <mxCell id="46" value="" style="edgeStyle=none;html=1;strokeColor=#0000CC;" parent="1" source="43" target="45" edge="1">
                    <mxGeometry relative="1" as="geometry"/>
                </mxCell>
                <mxCell id="43" value="&lt;font color=&quot;#0000cc&quot;&gt;array&amp;nbsp; de objetos&amp;nbsp;&lt;br&gt;links- promesa&lt;/font&gt;" style="whiteSpace=wrap;html=1;fillColor=#dae8fc;gradientColor=#7ea6e0;strokeColor=#6c8ebf;" parent="1" vertex="1">
                    <mxGeometry x="273" y="1432" width="120" height="60" as="geometry"/>
                </mxCell>
                <mxCell id="56" value="" style="edgeStyle=none;html=1;fontSize=11;strokeColor=#0000CC;" parent="1" source="45" edge="1">
                    <mxGeometry relative="1" as="geometry">
                        <mxPoint x="335.91891891891885" y="1714" as="targetPoint"/>
                    </mxGeometry>
                </mxCell>
                <mxCell id="58" value="" style="edgeStyle=none;html=1;fontSize=12;strokeColor=#0000CC;entryX=0;entryY=0.5;entryDx=0;entryDy=0;" parent="1" source="45" target="WNQO2OhhC1pBhigfkr8y-110" edge="1">
                    <mxGeometry relative="1" as="geometry">
                        <mxPoint x="478" y="1588" as="targetPoint"/>
                    </mxGeometry>
                </mxCell>
                <mxCell id="45" value="&lt;font color=&quot;#0000cc&quot;&gt;valida,&lt;br&gt;verdadero?&lt;/font&gt;" style="rhombus;whiteSpace=wrap;html=1;fillColor=#dae8fc;gradientColor=#7ea6e0;strokeColor=#6c8ebf;" parent="1" vertex="1">
                    <mxGeometry x="293" y="1554" width="80" height="80" as="geometry"/>
                </mxCell>
                <mxCell id="52" value="&lt;font color=&quot;#0000cc&quot;&gt;No&lt;/font&gt;" style="text;html=1;align=center;verticalAlign=middle;resizable=0;points=[];autosize=1;strokeColor=none;fillColor=none;" parent="1" vertex="1">
                    <mxGeometry x="408" y="1541" width="25" height="18" as="geometry"/>
                </mxCell>
                <mxCell id="63" value="" style="edgeStyle=none;html=1;fontSize=12;strokeColor=#0000CC;" parent="1" edge="1">
                    <mxGeometry relative="1" as="geometry">
                        <mxPoint x="341" y="1793" as="sourcePoint"/>
                        <mxPoint x="341" y="1940" as="targetPoint"/>
                        <Array as="points"/>
                    </mxGeometry>
                </mxCell>
                <mxCell id="65" value="" style="edgeStyle=none;html=1;fontSize=12;strokeColor=#0000CC;" parent="1" edge="1">
                    <mxGeometry relative="1" as="geometry">
                        <mxPoint x="537" y="1620" as="sourcePoint"/>
                        <mxPoint x="388" y="1972" as="targetPoint"/>
                        <Array as="points">
                            <mxPoint x="537" y="1972"/>
                        </Array>
                    </mxGeometry>
                </mxCell>
                <mxCell id="62" value="&lt;font color=&quot;#0000cc&quot;&gt;End&lt;/font&gt;" style="ellipse;whiteSpace=wrap;html=1;fillColor=#dae8fc;gradientColor=#7ea6e0;strokeColor=#6c8ebf;" parent="1" vertex="1">
                    <mxGeometry x="301" y="1939" width="82.5" height="70" as="geometry"/>
                </mxCell>
                <mxCell id="70" value="&lt;font color=&quot;#0000cc&quot;&gt;Si&lt;/font&gt;" style="text;html=1;strokeColor=none;fillColor=none;align=center;verticalAlign=middle;whiteSpace=wrap;rounded=0;" parent="1" vertex="1">
                    <mxGeometry x="307.5" y="1019" width="60" height="30" as="geometry"/>
                </mxCell>
                <mxCell id="71" value="&lt;font color=&quot;#0000cc&quot;&gt;Si&lt;/font&gt;" style="text;html=1;strokeColor=none;fillColor=none;align=center;verticalAlign=middle;whiteSpace=wrap;rounded=0;" parent="1" vertex="1">
                    <mxGeometry x="351" y="1371" width="60" height="30" as="geometry"/>
                </mxCell>
                <mxCell id="75" value="" style="edgeStyle=none;html=1;fontSize=12;fontColor=#0000CC;strokeColor=#0000CC;" parent="1" source="72" edge="1">
                    <mxGeometry relative="1" as="geometry">
                        <mxPoint x="30" y="1320" as="targetPoint"/>
                    </mxGeometry>
                </mxCell>
                <mxCell id="72" value="&lt;font color=&quot;#0000cc&quot;&gt;Mensaje&amp;nbsp;&lt;/font&gt;" style="whiteSpace=wrap;html=1;fillColor=#dae8fc;strokeColor=#6c8ebf;gradientColor=#7ea6e0;" parent="1" vertex="1">
                    <mxGeometry x="58" y="1290" width="120" height="60" as="geometry"/>
                </mxCell>
                <mxCell id="76" value="&lt;font color=&quot;#0000cc&quot;&gt;No&lt;/font&gt;" style="text;html=1;align=center;verticalAlign=middle;resizable=0;points=[];autosize=1;strokeColor=none;fillColor=none;" parent="1" vertex="1">
                    <mxGeometry x="227" y="1296" width="25" height="18" as="geometry"/>
                </mxCell>
                <mxCell id="77" value="&lt;font color=&quot;#0000cc&quot;&gt;Si&lt;/font&gt;" style="text;html=1;strokeColor=none;fillColor=none;align=center;verticalAlign=middle;whiteSpace=wrap;rounded=0;" parent="1" vertex="1">
                    <mxGeometry x="290" y="1650" width="60" height="30" as="geometry"/>
                </mxCell>
                <mxCell id="kwifDI89r2FNcfCUQLlG-79" value="&lt;b style=&quot;font-size: 24px;&quot;&gt;API JAVASCRIPT&lt;/b&gt;" style="text;html=1;align=center;verticalAlign=middle;resizable=0;points=[];autosize=1;strokeColor=none;fillColor=none;fontSize=24;fontColor=#0000CC;labelBackgroundColor=none;labelBorderColor=none;" parent="1" vertex="1">
                    <mxGeometry x="35" y="42" width="205" height="32" as="geometry"/>
                </mxCell>
                <mxCell id="84" value="" style="edgeStyle=none;html=1;strokeColor=#0000CC;" parent="1" source="WNQO2OhhC1pBhigfkr8y-84" edge="1">
                    <mxGeometry relative="1" as="geometry">
                        <mxPoint x="345" y="2014" as="targetPoint"/>
                        <Array as="points">
                            <mxPoint x="651" y="920"/>
                            <mxPoint x="651" y="2056"/>
                            <mxPoint x="651" y="2073"/>
                            <mxPoint x="345" y="2073"/>
                        </Array>
                    </mxGeometry>
                </mxCell>
                <mxCell id="WNQO2OhhC1pBhigfkr8y-84" value="archivos&lt;br&gt;md?" style="rhombus;whiteSpace=wrap;html=1;labelBackgroundColor=none;labelBorderColor=none;fontSize=12;fillColor=#dae8fc;direction=north;gradientColor=#7ea6e0;strokeColor=#6c8ebf;fontColor=#0000CC;" parent="1" vertex="1">
                    <mxGeometry x="252" y="884" width="80" height="80" as="geometry"/>
                </mxCell>
                <mxCell id="WNQO2OhhC1pBhigfkr8y-89" value="&lt;font color=&quot;#0000cc&quot;&gt;No&lt;/font&gt;" style="text;html=1;align=center;verticalAlign=middle;resizable=0;points=[];autosize=1;strokeColor=none;fillColor=none;" parent="1" vertex="1">
                    <mxGeometry x="478" y="897" width="25" height="18" as="geometry"/>
                </mxCell>
                <mxCell id="WNQO2OhhC1pBhigfkr8y-97" value="&lt;font color=&quot;#0000cc&quot;&gt;No&lt;/font&gt;" style="text;html=1;align=center;verticalAlign=middle;resizable=0;points=[];autosize=1;strokeColor=none;fillColor=none;" parent="1" vertex="1">
                    <mxGeometry x="82" y="1145" width="25" height="18" as="geometry"/>
                </mxCell>
                <mxCell id="WNQO2OhhC1pBhigfkr8y-102" value="&lt;font color=&quot;#0000cc&quot;&gt;Si&lt;/font&gt;" style="text;html=1;strokeColor=none;fillColor=none;align=center;verticalAlign=middle;whiteSpace=wrap;rounded=0;" parent="1" vertex="1">
                    <mxGeometry x="230" y="624" width="60" height="30" as="geometry"/>
                </mxCell>
                <mxCell id="WNQO2OhhC1pBhigfkr8y-106" value="&lt;font color=&quot;#0000cc&quot;&gt;Si&lt;/font&gt;" style="text;html=1;strokeColor=none;fillColor=none;align=center;verticalAlign=middle;whiteSpace=wrap;rounded=0;" parent="1" vertex="1">
                    <mxGeometry x="192" y="1028" width="60" height="30" as="geometry"/>
                </mxCell>
                <mxCell id="WNQO2OhhC1pBhigfkr8y-107" value="&lt;span&gt;Href&lt;/span&gt;&lt;br&gt;&lt;span&gt;File&lt;/span&gt;&lt;br&gt;&lt;span&gt;Txt&lt;/span&gt;&lt;br&gt;&lt;span&gt;Status&lt;/span&gt;&lt;br&gt;&lt;span&gt;Mensaje ok&lt;/span&gt;" style="shape=parallelogram;perimeter=parallelogramPerimeter;whiteSpace=wrap;html=1;fixedSize=1;labelBackgroundColor=none;labelBorderColor=none;fontSize=12;fillColor=#dae8fc;gradientColor=#7ea6e0;strokeColor=#6c8ebf;fontColor=#0000CC;" parent="1" vertex="1">
                    <mxGeometry x="273" y="1720" width="142.5" height="74" as="geometry"/>
                </mxCell>
                <mxCell id="WNQO2OhhC1pBhigfkr8y-110" value="&lt;span&gt;Href&lt;/span&gt;&lt;br&gt;&lt;span&gt;File&lt;/span&gt;&lt;br&gt;&lt;span&gt;Txt&lt;/span&gt;" style="shape=parallelogram;perimeter=parallelogramPerimeter;whiteSpace=wrap;html=1;fixedSize=1;labelBackgroundColor=none;labelBorderColor=none;fontSize=12;fillColor=#dae8fc;gradientColor=#7ea6e0;strokeColor=#6c8ebf;fontColor=#0000CC;" parent="1" vertex="1">
                    <mxGeometry x="478" y="1564" width="122" height="60" as="geometry"/>
                </mxCell>
                <mxCell id="88" value="" style="curved=1;endArrow=classic;html=1;exitX=0.5;exitY=1;exitDx=0;exitDy=0;entryX=1;entryY=0;entryDx=0;entryDy=0;" parent="1" source="18" target="18" edge="1">
                    <mxGeometry width="50" height="50" relative="1" as="geometry">
                        <mxPoint x="372.5" y="810" as="sourcePoint"/>
                        <mxPoint x="404.5" y="751" as="targetPoint"/>
                        <Array as="points">
                            <mxPoint x="319" y="808"/>
                            <mxPoint x="362" y="808"/>
                            <mxPoint x="362" y="753"/>
                            <mxPoint x="344.5" y="746"/>
                        </Array>
                    </mxGeometry>
                </mxCell>
            </root>
        </mxGraphModel>
    </diagram>
    <diagram id="-twVRuVrfYP2rep6L3cO" name="PÃ¡gina-2">
        <mxGraphModel dx="2538" dy="1334" grid="0" gridSize="10" guides="1" tooltips="1" connect="1" arrows="1" fold="1" page="0" pageScale="1" pageWidth="827" pageHeight="1169" background="#ffffff" math="0" shadow="1">
            <root>
                <mxCell id="A2vsF45atlIoKxzOCyQ7-0"/>
                <mxCell id="A2vsF45atlIoKxzOCyQ7-1" parent="A2vsF45atlIoKxzOCyQ7-0"/>
                <mxCell id="Nqpo5eZ29HLpD5ILlnBa-2" value="" style="edgeStyle=none;html=1;fontSize=12;fontColor=#0000CC;strokeColor=#0000CC;" parent="A2vsF45atlIoKxzOCyQ7-1" source="Nqpo5eZ29HLpD5ILlnBa-0" edge="1">
                    <mxGeometry relative="1" as="geometry">
                        <mxPoint x="250" y="110" as="targetPoint"/>
                    </mxGeometry>
                </mxCell>
                <mxCell id="Nqpo5eZ29HLpD5ILlnBa-0" value="Start" style="ellipse;whiteSpace=wrap;html=1;aspect=fixed;labelBackgroundColor=#CCE5FF;labelBorderColor=none;fontSize=12;fontColor=#0000CC;fillColor=#CCE5FF;" parent="A2vsF45atlIoKxzOCyQ7-1" vertex="1">
                    <mxGeometry x="220" y="20" width="60" height="60" as="geometry"/>
                </mxCell>
                <mxCell id="Nqpo5eZ29HLpD5ILlnBa-4" value="" style="edgeStyle=none;html=1;fontSize=12;fontColor=#0000CC;strokeColor=#0000CC;" parent="A2vsF45atlIoKxzOCyQ7-1" edge="1">
                    <mxGeometry relative="1" as="geometry">
                        <mxPoint x="250" y="144" as="sourcePoint"/>
                        <mxPoint x="250" y="200" as="targetPoint"/>
                    </mxGeometry>
                </mxCell>
                <mxCell id="R8ZTa1-iHO7WXnNdTQHF-2" value="" style="edgeStyle=none;html=1;fontSize=24;fontColor=#0000CC;strokeColor=#0000CC;" parent="A2vsF45atlIoKxzOCyQ7-1" edge="1">
                    <mxGeometry relative="1" as="geometry">
                        <mxPoint x="200" y="120" as="sourcePoint"/>
                        <mxPoint x="60" y="200" as="targetPoint"/>
                        <Array as="points">
                            <mxPoint x="60" y="120"/>
                        </Array>
                    </mxGeometry>
                </mxCell>
                <mxCell id="wvbfFKR5tNvZiHHRC7iX-1" value="" style="edgeStyle=none;html=1;fontSize=12;fontColor=#0000CC;strokeColor=#0000CC;exitX=0.5;exitY=1;exitDx=0;exitDy=0;entryX=0.5;entryY=0;entryDx=0;entryDy=0;" parent="A2vsF45atlIoKxzOCyQ7-1" target="wvbfFKR5tNvZiHHRC7iX-0" edge="1">
                    <mxGeometry relative="1" as="geometry">
                        <mxPoint x="60" y="260" as="sourcePoint"/>
                        <mxPoint x="30" y="300" as="targetPoint"/>
                    </mxGeometry>
                </mxCell>
                <mxCell id="wvbfFKR5tNvZiHHRC7iX-20" value="" style="edgeStyle=none;html=1;fontSize=12;fontColor=#0000CC;strokeColor=#0000CC;" parent="A2vsF45atlIoKxzOCyQ7-1" source="wvbfFKR5tNvZiHHRC7iX-0" target="wvbfFKR5tNvZiHHRC7iX-2" edge="1">
                    <mxGeometry relative="1" as="geometry"/>
                </mxCell>
                <mxCell id="wvbfFKR5tNvZiHHRC7iX-0" value="PeticiÃ³n Http" style="rounded=0;whiteSpace=wrap;html=1;labelBackgroundColor=none;labelBorderColor=none;fontSize=12;fontColor=#0000CC;fillColor=#CCE5FF;" parent="A2vsF45atlIoKxzOCyQ7-1" vertex="1">
                    <mxGeometry x="5" y="320" width="110" height="40" as="geometry"/>
                </mxCell>
                <mxCell id="wvbfFKR5tNvZiHHRC7iX-22" value="" style="edgeStyle=none;html=1;fontSize=12;fontColor=#0000CC;strokeColor=#0000CC;" parent="A2vsF45atlIoKxzOCyQ7-1" source="wvbfFKR5tNvZiHHRC7iX-2" edge="1">
                    <mxGeometry relative="1" as="geometry">
                        <mxPoint x="160" y="500" as="targetPoint"/>
                        <Array as="points">
                            <mxPoint x="160" y="440"/>
                        </Array>
                    </mxGeometry>
                </mxCell>
                <mxCell id="wvbfFKR5tNvZiHHRC7iX-28" value="" style="edgeStyle=none;html=1;fontSize=12;fontColor=#0000CC;strokeColor=#0000CC;" parent="A2vsF45atlIoKxzOCyQ7-1" source="wvbfFKR5tNvZiHHRC7iX-2" target="wvbfFKR5tNvZiHHRC7iX-29" edge="1">
                    <mxGeometry relative="1" as="geometry">
                        <mxPoint x="-30" y="500" as="targetPoint"/>
                        <Array as="points">
                            <mxPoint x="-30" y="440"/>
                            <mxPoint x="-30" y="487"/>
                        </Array>
                    </mxGeometry>
                </mxCell>
                <mxCell id="wvbfFKR5tNvZiHHRC7iX-2" value="funciona&amp;nbsp;&lt;br&gt;url?" style="rhombus;whiteSpace=wrap;html=1;labelBackgroundColor=none;labelBorderColor=none;fontSize=12;fontColor=#0000CC;fillColor=#CCE5FF;" parent="A2vsF45atlIoKxzOCyQ7-1" vertex="1">
                    <mxGeometry x="20" y="400" width="80" height="80" as="geometry"/>
                </mxCell>
                <mxCell id="wvbfFKR5tNvZiHHRC7iX-13" value="" style="edgeStyle=none;html=1;fontSize=12;fontColor=#0000CC;strokeColor=#0000CC;" parent="A2vsF45atlIoKxzOCyQ7-1" source="wvbfFKR5tNvZiHHRC7iX-3" target="wvbfFKR5tNvZiHHRC7iX-4" edge="1">
                    <mxGeometry relative="1" as="geometry"/>
                </mxCell>
                <mxCell id="wvbfFKR5tNvZiHHRC7iX-3" value="&lt;span style=&quot;background-color: rgb(204 , 229 , 255)&quot;&gt;--validate&lt;/span&gt;" style="rhombus;whiteSpace=wrap;html=1;labelBackgroundColor=#2a2a2a;labelBorderColor=none;fontSize=12;fontColor=#0000CC;fillColor=#CCE5FF;" parent="A2vsF45atlIoKxzOCyQ7-1" vertex="1">
                    <mxGeometry x="20" y="200" width="80" height="80" as="geometry"/>
                </mxCell>
                <mxCell id="wvbfFKR5tNvZiHHRC7iX-15" value="" style="edgeStyle=none;html=1;fontSize=12;fontColor=#0000CC;strokeColor=#0000CC;entryX=0;entryY=0.5;entryDx=0;entryDy=0;" parent="A2vsF45atlIoKxzOCyQ7-1" source="wvbfFKR5tNvZiHHRC7iX-4" target="wvbfFKR5tNvZiHHRC7iX-5" edge="1">
                    <mxGeometry relative="1" as="geometry">
                        <mxPoint x="370" y="240" as="targetPoint"/>
                    </mxGeometry>
                </mxCell>
                <mxCell id="wvbfFKR5tNvZiHHRC7iX-48" value="" style="edgeStyle=none;html=1;fontSize=12;fontColor=#0000CC;strokeColor=#0000CC;" parent="A2vsF45atlIoKxzOCyQ7-1" source="wvbfFKR5tNvZiHHRC7iX-4" target="wvbfFKR5tNvZiHHRC7iX-47" edge="1">
                    <mxGeometry relative="1" as="geometry"/>
                </mxCell>
                <mxCell id="wvbfFKR5tNvZiHHRC7iX-4" value="&lt;span&gt;--stats&lt;/span&gt;" style="rhombus;whiteSpace=wrap;html=1;labelBackgroundColor=none;labelBorderColor=none;fontSize=12;fontColor=#0000CC;fillColor=#CCE5FF;" parent="A2vsF45atlIoKxzOCyQ7-1" vertex="1">
                    <mxGeometry x="210" y="200" width="80" height="80" as="geometry"/>
                </mxCell>
                <mxCell id="wvbfFKR5tNvZiHHRC7iX-51" value="" style="edgeStyle=none;html=1;fontSize=12;fontColor=#0000CC;strokeColor=#0000CC;" parent="A2vsF45atlIoKxzOCyQ7-1" source="wvbfFKR5tNvZiHHRC7iX-5" target="wvbfFKR5tNvZiHHRC7iX-50" edge="1">
                    <mxGeometry relative="1" as="geometry"/>
                </mxCell>
                <mxCell id="wvbfFKR5tNvZiHHRC7iX-5" value="&#10;&#10;&lt;br style=&quot;color: rgb(0, 0, 204); font-family: helvetica; font-size: 12px; font-style: normal; font-weight: 400; letter-spacing: normal; text-align: center; text-indent: 0px; text-transform: none; word-spacing: 0px;&quot;&gt;&lt;span style=&quot;color: rgb(0, 0, 204); font-family: helvetica; font-size: 12px; font-style: normal; font-weight: 400; letter-spacing: normal; text-align: center; text-indent: 0px; text-transform: none; word-spacing: 0px; display: inline; float: none;&quot;&gt;--validate&lt;/span&gt;&lt;br style=&quot;color: rgb(0, 0, 204); font-family: helvetica; font-size: 12px; font-style: normal; font-weight: 400; letter-spacing: normal; text-align: center; text-indent: 0px; text-transform: none; word-spacing: 0px;&quot;&gt;&lt;span style=&quot;color: rgb(0, 0, 204); font-family: helvetica; font-size: 12px; font-style: normal; font-weight: 400; letter-spacing: normal; text-align: center; text-indent: 0px; text-transform: none; word-spacing: 0px; display: inline; float: none;&quot;&gt;--stats&lt;/span&gt;&#10;&#10;" style="rhombus;whiteSpace=wrap;html=1;labelBackgroundColor=none;labelBorderColor=none;fontSize=12;fontColor=#0000CC;fillColor=#CCE5FF;" parent="A2vsF45atlIoKxzOCyQ7-1" vertex="1">
                    <mxGeometry x="420" y="200" width="80" height="80" as="geometry"/>
                </mxCell>
                <mxCell id="wvbfFKR5tNvZiHHRC7iX-10" value="" style="edgeStyle=none;html=1;fontSize=12;fontColor=#0000CC;strokeColor=#0000CC;endArrow=none;" parent="A2vsF45atlIoKxzOCyQ7-1" target="wvbfFKR5tNvZiHHRC7iX-5" edge="1">
                    <mxGeometry relative="1" as="geometry">
                        <mxPoint x="310" y="120" as="sourcePoint"/>
                        <mxPoint x="449" y="210" as="targetPoint"/>
                        <Array as="points">
                            <mxPoint x="330" y="120"/>
                            <mxPoint x="460" y="120"/>
                        </Array>
                    </mxGeometry>
                </mxCell>
                <mxCell id="wvbfFKR5tNvZiHHRC7iX-12" value="options" style="rounded=0;whiteSpace=wrap;html=1;labelBackgroundColor=none;labelBorderColor=none;fontSize=12;fontColor=#0000CC;fillColor=#CCE5FF;" parent="A2vsF45atlIoKxzOCyQ7-1" vertex="1">
                    <mxGeometry x="200" y="100" width="110" height="40" as="geometry"/>
                </mxCell>
                <mxCell id="wvbfFKR5tNvZiHHRC7iX-16" value="No" style="text;html=1;strokeColor=none;fillColor=none;align=center;verticalAlign=middle;whiteSpace=wrap;rounded=0;labelBackgroundColor=none;labelBorderColor=none;fontSize=12;fontColor=#0000CC;" parent="A2vsF45atlIoKxzOCyQ7-1" vertex="1">
                    <mxGeometry x="130" y="210" width="60" height="30" as="geometry"/>
                </mxCell>
                <mxCell id="wvbfFKR5tNvZiHHRC7iX-17" value="No" style="text;html=1;strokeColor=none;fillColor=none;align=center;verticalAlign=middle;whiteSpace=wrap;rounded=0;labelBackgroundColor=none;labelBorderColor=none;fontSize=12;fontColor=#0000CC;" parent="A2vsF45atlIoKxzOCyQ7-1" vertex="1">
                    <mxGeometry x="350" y="210" width="60" height="30" as="geometry"/>
                </mxCell>
                <mxCell id="wvbfFKR5tNvZiHHRC7iX-18" value="Si" style="text;html=1;strokeColor=none;fillColor=none;align=center;verticalAlign=middle;whiteSpace=wrap;rounded=0;labelBackgroundColor=none;labelBorderColor=none;fontSize=12;fontColor=#0000CC;" parent="A2vsF45atlIoKxzOCyQ7-1" vertex="1">
                    <mxGeometry x="50" y="280" width="60" height="30" as="geometry"/>
                </mxCell>
                <mxCell id="wvbfFKR5tNvZiHHRC7iX-42" value="" style="edgeStyle=none;html=1;fontSize=12;fontColor=#0000CC;strokeColor=#0000CC;exitX=0.417;exitY=1;exitDx=0;exitDy=0;exitPerimeter=0;" parent="A2vsF45atlIoKxzOCyQ7-1" source="wvbfFKR5tNvZiHHRC7iX-23" edge="1">
                    <mxGeometry relative="1" as="geometry">
                        <mxPoint x="80" y="640" as="targetPoint"/>
                        <Array as="points">
                            <mxPoint x="160" y="640"/>
                        </Array>
                    </mxGeometry>
                </mxCell>
                <mxCell id="wvbfFKR5tNvZiHHRC7iX-23" value="mensaje fail" style="shape=parallelogram;perimeter=parallelogramPerimeter;whiteSpace=wrap;html=1;fixedSize=1;labelBackgroundColor=none;labelBorderColor=none;fontSize=12;fontColor=#0000CC;fillColor=#CCE5FF;" parent="A2vsF45atlIoKxzOCyQ7-1" vertex="1">
                    <mxGeometry x="110" y="500" width="120" height="50" as="geometry"/>
                </mxCell>
                <mxCell id="wvbfFKR5tNvZiHHRC7iX-44" value="" style="edgeStyle=none;html=1;fontSize=12;fontColor=#0000CC;strokeColor=#0000CC;entryX=0;entryY=0.5;entryDx=0;entryDy=0;" parent="A2vsF45atlIoKxzOCyQ7-1" source="wvbfFKR5tNvZiHHRC7iX-29" target="wvbfFKR5tNvZiHHRC7iX-31" edge="1">
                    <mxGeometry relative="1" as="geometry">
                        <mxPoint x="-30" y="650" as="targetPoint"/>
                        <Array as="points">
                            <mxPoint x="-30" y="640"/>
                            <mxPoint x="80" y="640"/>
                            <mxPoint x="80" y="730"/>
                            <mxPoint x="120" y="730"/>
                        </Array>
                    </mxGeometry>
                </mxCell>
                <mxCell id="wvbfFKR5tNvZiHHRC7iX-29" value="mensaje ok" style="shape=parallelogram;perimeter=parallelogramPerimeter;whiteSpace=wrap;html=1;fixedSize=1;labelBackgroundColor=none;labelBorderColor=none;fontSize=12;fontColor=#0000CC;fillColor=#CCE5FF;" parent="A2vsF45atlIoKxzOCyQ7-1" vertex="1">
                    <mxGeometry x="-90" y="500" width="120" height="50" as="geometry"/>
                </mxCell>
                <mxCell id="wvbfFKR5tNvZiHHRC7iX-31" value="End" style="ellipse;whiteSpace=wrap;html=1;aspect=fixed;labelBackgroundColor=none;labelBorderColor=none;fontSize=12;fontColor=#0000CC;fillColor=#CCE5FF;" parent="A2vsF45atlIoKxzOCyQ7-1" vertex="1">
                    <mxGeometry x="210" y="690" width="80" height="80" as="geometry"/>
                </mxCell>
                <mxCell id="wvbfFKR5tNvZiHHRC7iX-45" value="Si" style="text;html=1;strokeColor=none;fillColor=none;align=center;verticalAlign=middle;whiteSpace=wrap;rounded=0;labelBackgroundColor=none;labelBorderColor=none;fontSize=12;fontColor=#0000CC;" parent="A2vsF45atlIoKxzOCyQ7-1" vertex="1">
                    <mxGeometry x="-90" y="450" width="60" height="30" as="geometry"/>
                </mxCell>
                <mxCell id="wvbfFKR5tNvZiHHRC7iX-46" value="No" style="text;html=1;strokeColor=none;fillColor=none;align=center;verticalAlign=middle;whiteSpace=wrap;rounded=0;labelBackgroundColor=none;labelBorderColor=none;fontSize=12;fontColor=#0000CC;" parent="A2vsF45atlIoKxzOCyQ7-1" vertex="1">
                    <mxGeometry x="170" y="450" width="60" height="30" as="geometry"/>
                </mxCell>
                <mxCell id="wvbfFKR5tNvZiHHRC7iX-49" value="" style="edgeStyle=none;html=1;fontSize=12;fontColor=#0000CC;strokeColor=#0000CC;entryX=0.5;entryY=0;entryDx=0;entryDy=0;" parent="A2vsF45atlIoKxzOCyQ7-1" source="wvbfFKR5tNvZiHHRC7iX-47" target="wvbfFKR5tNvZiHHRC7iX-31" edge="1">
                    <mxGeometry relative="1" as="geometry">
                        <Array as="points">
                            <mxPoint x="250" y="670"/>
                        </Array>
                    </mxGeometry>
                </mxCell>
                <mxCell id="wvbfFKR5tNvZiHHRC7iX-47" value="total, unico" style="shape=parallelogram;perimeter=parallelogramPerimeter;whiteSpace=wrap;html=1;fixedSize=1;fillColor=#CCE5FF;fontColor=#0000CC;labelBackgroundColor=none;labelBorderColor=none;" parent="A2vsF45atlIoKxzOCyQ7-1" vertex="1">
                    <mxGeometry x="190" y="320" width="120" height="50" as="geometry"/>
                </mxCell>
                <mxCell id="wvbfFKR5tNvZiHHRC7iX-53" value="" style="edgeStyle=none;html=1;fontSize=12;fontColor=#0000CC;strokeColor=#0000CC;entryX=1;entryY=0.5;entryDx=0;entryDy=0;" parent="A2vsF45atlIoKxzOCyQ7-1" source="wvbfFKR5tNvZiHHRC7iX-50" target="wvbfFKR5tNvZiHHRC7iX-31" edge="1">
                    <mxGeometry relative="1" as="geometry">
                        <mxPoint x="460" y="730" as="targetPoint"/>
                        <Array as="points">
                            <mxPoint x="460" y="730"/>
                        </Array>
                    </mxGeometry>
                </mxCell>
                <mxCell id="wvbfFKR5tNvZiHHRC7iX-50" value="totales , unico, &lt;br&gt;roto" style="shape=parallelogram;perimeter=parallelogramPerimeter;whiteSpace=wrap;html=1;fixedSize=1;fillColor=#CCE5FF;fontColor=#0000CC;labelBackgroundColor=none;labelBorderColor=none;" parent="A2vsF45atlIoKxzOCyQ7-1" vertex="1">
                    <mxGeometry x="400" y="320" width="120" height="50" as="geometry"/>
                </mxCell>
                <mxCell id="wvbfFKR5tNvZiHHRC7iX-54" value="&lt;font style=&quot;font-size: 18px&quot;&gt;CLI- INTERFAZ DE LINEA DE COMANDO&lt;/font&gt;" style="text;html=1;strokeColor=none;fillColor=none;align=center;verticalAlign=middle;whiteSpace=wrap;rounded=0;labelBackgroundColor=none;labelBorderColor=none;fontSize=12;fontColor=#0000CC;fontStyle=1" parent="A2vsF45atlIoKxzOCyQ7-1" vertex="1">
                    <mxGeometry x="-30" y="-90" width="490" height="30" as="geometry"/>
                </mxCell>
                <mxCell id="wvbfFKR5tNvZiHHRC7iX-55" value="Si" style="text;html=1;strokeColor=none;fillColor=none;align=center;verticalAlign=middle;whiteSpace=wrap;rounded=0;labelBackgroundColor=none;labelBorderColor=none;fontSize=12;fontColor=#0000CC;" parent="A2vsF45atlIoKxzOCyQ7-1" vertex="1">
                    <mxGeometry x="260" y="280" width="60" height="30" as="geometry"/>
                </mxCell>
                <mxCell id="wvbfFKR5tNvZiHHRC7iX-57" value="Si" style="text;html=1;strokeColor=none;fillColor=none;align=center;verticalAlign=middle;whiteSpace=wrap;rounded=0;labelBackgroundColor=none;labelBorderColor=none;fontSize=12;fontColor=#0000CC;" parent="A2vsF45atlIoKxzOCyQ7-1" vertex="1">
                    <mxGeometry x="460" y="280" width="60" height="30" as="geometry"/>
                </mxCell>
            </root>
        </mxGraphModel>
    </diagram>
</mxfile>